<svg t="1681187392338" class="icon" viewBox="0 0 1024 1024" version="1.1" xmlns="http://www.w3.org/2000/svg" p-id="4086" width="16" height="16"><path d="M470.869333 382.976a8.049778 8.049778 0 0 0-7.992889-8.106667h-48.014222a8.135111 8.135111 0 0 0-7.992889 8.106667v97.024h-96.568889c-4.693333 0-8.590222 3.555556-8.590222 7.992889v48.014222c0 4.323556 3.896889 7.992889 8.590222 7.992889h96.568889v97.024c0 4.465778 3.640889 8.106667 7.992889 8.106667h48.014222a8.049778 8.049778 0 0 0 7.964445-8.106667v-97.024h96.597333c4.693333 0 8.561778-3.669333 8.561778-7.992889v-48.014222c0-4.437333-3.868444-7.992889-8.561778-7.992889h-96.568889v-97.024z m96.568889 348.444444h-257.137778c-4.693333 0-8.590222 3.669333-8.590222 8.021334v47.985778c0 4.352 3.896889 7.992889 8.590222 7.992888h257.137778c4.693333 0 8.561778-3.640889 8.561778-7.992888v-48.014223c0-4.323556-3.868444-7.964444-8.561778-7.964444z m-8.106666-574.378666a36.522667 36.522667 0 0 0-25.856-10.752H146.318222c-20.224 0-36.579556 16.327111-36.579555 36.579555v804.551111c0 20.224 16.355556 36.579556 36.579555 36.579556h585.130667c20.252444 0 36.579556-16.355556 36.579555-36.579556V380.928c0-9.728-3.868444-18.972444-10.752-25.856l-197.916444-198.030222z m126.378666 784.668444H192V228.579556H514.56l171.178667 171.207111v541.923555z m217.372445-664.462222L625.493333 10.154667A36.778667 36.778667 0 0 0 600.149333 0H265.159111A9.159111 9.159111 0 0 0 256 9.130667v64c0 5.034667 4.124444 9.159111 9.159111 9.159111h316.586667l250.254222 240.668444v545.621334c0 5.006222 4.124444 9.130667 9.159111 9.130666h64a9.159111 9.159111 0 0 0 9.130667-9.130666V303.502222c0-9.955556-3.982222-19.427556-11.207111-26.282666z" fill="#000000" fill-opacity=".65" p-id="4087"></path></svg>