<svg t="1690277339927" class="icon" viewBox="0 0 1024 1024" version="1.1" xmlns="http://www.w3.org/2000/svg" p-id="3241" width="16" height="16"><path d="M409.6 853.333333H34.133333c-10.24 0-17.066667-6.826667-17.066666-17.066666v-546.133334c0-3.413333 3.413333-10.24 3.413333-13.653333l273.066667-273.066667c3.413333 0 10.24-3.413333 13.653333-3.413333h273.066667c10.24 0 17.066667 6.826667 17.066666 17.066667v477.866666c0 10.24-6.826667 17.066667-17.066666 17.066667s-17.066667-6.826667-17.066667-17.066667V34.133333H314.026667L51.2 296.96V819.2H409.6c10.24 0 17.066667 6.826667 17.066667 17.066667s-6.826667 17.066667-17.066667 17.066666z" fill="" p-id="3242"></path><path d="M307.2 307.2H34.133333c-10.24 0-17.066667-6.826667-17.066666-17.066667S23.893333 273.066667 34.133333 273.066667h256V17.066667c0-10.24 6.826667-17.066667 17.066667-17.066667s17.066667 6.826667 17.066667 17.066667v273.066666c0 10.24-6.826667 17.066667-17.066667 17.066667zM921.6 409.6h-6.826667c-6.826667-3.413333-10.24-10.24-10.24-17.066667V204.8c0-37.546667-30.72-68.266667-68.266666-68.266667H682.666667c-10.24 0-17.066667-6.826667-17.066667-17.066666s6.826667-17.066667 17.066667-17.066667h153.6c58.026667 0 102.4 44.373333 102.4 102.4v146.773333l37.546666-37.546666c6.826667-6.826667 17.066667-6.826667 23.893334 0s6.826667 17.066667 0 23.893333l-68.266667 68.266667s-6.826667 3.413333-10.24 3.413333z" fill="" p-id="3243"></path><path d="M921.6 409.6c-3.413333 0-10.24 0-13.653333-3.413333l-68.266667-68.266667c-6.826667-6.826667-6.826667-17.066667 0-23.893333s17.066667-6.826667 23.893333 0l68.266667 68.266666c6.826667 6.826667 6.826667 17.066667 0 23.893334 0 3.413333-6.826667 3.413333-10.24 3.413333zM921.6 1024c-10.24 0-17.066667-6.826667-17.066667-17.066667v-409.6c0-10.24 6.826667-17.066667 17.066667-17.066666s17.066667 6.826667 17.066667 17.066666v409.6c0 10.24-6.826667 17.066667-17.066667 17.066667zM853.333333 955.733333c-10.24 0-17.066667-6.826667-17.066666-17.066666v-341.333334c0-10.24 6.826667-17.066667 17.066666-17.066666s17.066667 6.826667 17.066667 17.066666v341.333334c0 10.24-6.826667 17.066667-17.066667 17.066666zM785.066667 955.733333c-10.24 0-17.066667-6.826667-17.066667-17.066666v-341.333334c0-10.24 6.826667-17.066667 17.066667-17.066666s17.066667 6.826667 17.066666 17.066666v341.333334c0 10.24-6.826667 17.066667-17.066666 17.066666zM716.8 1024c-10.24 0-17.066667-6.826667-17.066667-17.066667v-409.6c0-10.24 6.826667-17.066667 17.066667-17.066666s17.066667 6.826667 17.066667 17.066666v409.6c0 10.24-6.826667 17.066667-17.066667 17.066667zM512 1024c-10.24 0-17.066667-6.826667-17.066667-17.066667v-409.6c0-10.24 6.826667-17.066667 17.066667-17.066666s17.066667 6.826667 17.066667 17.066666v409.6c0 10.24-6.826667 17.066667-17.066667 17.066667zM648.533333 955.733333c-10.24 0-17.066667-6.826667-17.066666-17.066666v-341.333334c0-10.24 6.826667-17.066667 17.066666-17.066666s17.066667 6.826667 17.066667 17.066666v341.333334c0 10.24-6.826667 17.066667-17.066667 17.066666zM580.266667 955.733333c-10.24 0-17.066667-6.826667-17.066667-17.066666v-341.333334c0-10.24 6.826667-17.066667 17.066667-17.066666s17.066667 6.826667 17.066666 17.066666v341.333334c0 10.24-6.826667 17.066667-17.066666 17.066666z" fill="" p-id="3244"></path><path d="M785.066667 1006.933333m-17.066667 0a17.066667 17.066667 0 1 0 34.133333 0 17.066667 17.066667 0 1 0-34.133333 0Z" fill="" p-id="3245"></path><path d="M853.333333 1006.933333m-17.066666 0a17.066667 17.066667 0 1 0 34.133333 0 17.066667 17.066667 0 1 0-34.133333 0Z" fill="" p-id="3246"></path><path d="M580.266667 1006.933333m-17.066667 0a17.066667 17.066667 0 1 0 34.133333 0 17.066667 17.066667 0 1 0-34.133333 0Z" fill="" p-id="3247"></path><path d="M648.533333 1006.933333m-17.066666 0a17.066667 17.066667 0 1 0 34.133333 0 17.066667 17.066667 0 1 0-34.133333 0Z" fill="" p-id="3248"></path></svg>