<svg xmlns="http://www.w3.org/2000/svg" width="16" height="16" class="icon" viewBox="0 0 1201 1024"><path d="M982.223 854.4c0 17.92 0 35.84-11.953 47.793-5.977 5.977-17.92 29.873-47.804 29.873h-639.29c-29.874 0-41.817-17.92-47.794-29.873-11.953-17.92-11.953-35.84-11.953-47.793l5.977-5.977 262.892-298.742c17.92-23.896 59.746-29.873 83.643-5.976L982.233 854.4zM151.73 549.681c0 113.526-77.687 221.066-83.654 221.066C62.1 782.7 50.156 782.7 38.203 782.7c-5.977 0-17.92 0-23.897-5.976-17.92-11.954-17.92-35.85-5.976-53.77 0 0 65.723-89.63 65.723-173.273 0-89.62-65.723-173.272-65.723-173.272-11.953-17.92-11.953-41.817 5.976-53.77 17.92-17.92 41.817-11.953 53.77 5.976 5.977 0 83.643 107.54 83.643 221.066zm1039.605 173.273c11.954 17.92 11.954 41.816-5.976 53.76-5.967 5.986-17.92 5.986-23.897 5.986-11.953 0-23.896-5.976-29.873-11.953-5.977-5.977-83.643-107.55-83.643-221.066 0-113.526 77.666-221.066 83.643-221.066 11.953-17.92 35.84-17.92 53.77-5.976 17.92 11.953 17.92 35.84 5.976 53.77 0 0-65.723 83.653-65.723 173.272 0 89.62 65.723 173.273 65.723 173.273z"/><path d="M1053.913 53.77C1030.016 17.93 988.19 0 946.373 0h-693.07c-41.827 0-83.654 17.92-107.55 53.77-17.92 23.906-29.883 53.78-29.883 77.676 0 17.92 0 29.873 5.976 47.793 59.747 173.273 95.606 310.696 95.606 394.339 0 65.723-23.906 149.366-65.733 233.019-23.896 41.826-17.92 101.573 11.954 143.4 23.896 41.816 65.723 65.722 113.526 65.722h639.3c47.794 0 89.62-23.906 113.527-65.723 29.863-47.803 29.863-101.573 5.967-149.366-47.803-83.653-71.7-161.33-71.7-221.076 0-83.643 35.85-227.042 95.606-394.338 29.863-47.793 23.887-95.596-5.986-131.446zm-71.69 800.63c0 17.92 0 35.84-11.953 47.793-5.977 5.977-17.92 29.873-47.804 29.873h-639.29c-29.874 0-41.817-17.92-47.794-29.873-11.953-17.92-11.953-35.84-11.953-47.793l5.977-5.977 262.892-298.742c17.92-23.896 59.746-29.873 83.643-5.976L982.233 854.4zm17.92-705.034C952.35 274.836 898.57 454.085 898.57 573.578c0 41.826 5.976 89.62 23.896 137.423L623.734 483.958c-59.746-41.826-137.423-35.84-185.226 17.92l-143.39 161.32c5.977-29.874 5.977-59.747 5.977-89.62 0-59.747-11.953-131.446-35.85-209.113-17.92-71.7-41.826-149.366-65.723-215.099-5.976-11.943-5.976-35.84 5.977-47.793 11.943-11.953 23.897-23.897 41.817-23.897h699.057c17.92 0 29.873 5.967 41.817 23.897 11.953 11.943 17.92 35.84 11.953 47.793z"/><path d="M749.194 173.273c-77.667 0-137.413 59.746-137.413 137.413 0 77.676 59.746 137.422 137.423 137.422 77.666 0 137.422-59.746 137.422-137.422 0-71.69-59.756-137.413-137.422-137.413zm0 203.136c-35.84 0-59.737-29.874-59.737-59.747s29.873-59.746 59.747-59.746 59.746 29.873 59.746 59.746-23.896 59.747-59.746 59.747z"/></svg>