<svg xmlns="http://www.w3.org/2000/svg" width="16" height="16" class="icon" viewBox="0 0 1024 1024"><path fill="#2c2c2c" d="M830.464 234.496c12.288 0 23.552 4.096 33.28 11.264l3.584 3.072 140.288 131.072c9.728 9.216 15.872 21.504 16.896 34.816v491.52c0 62.976-50.176 114.688-112.64 117.248H501.248c-63.488 0-114.688-50.176-117.248-112.64V352.256c0-62.976 50.176-114.688 112.64-117.248h333.824zm-41.472 64H501.248c-28.16 0-51.2 22.016-53.248 49.664v270.336h437.76c11.776 0 21.504 9.728 21.504 21.504v192c0 11.776-9.728 21.504-21.504 21.504H447.488v53.248c0 28.16 22.016 51.2 49.664 53.248H906.24c28.16 0 51.2-22.016 53.248-49.664V458.752h-138.24c-15.872 0-30.72-11.776-32.256-29.184V298.496zM664.064 661.504h-46.08V808.96h48.128c54.272 1.536 80.384-23.04 78.848-74.752-1.024-46.592-26.112-70.656-75.264-72.704h-5.632zm-118.784 0h-61.44V808.96h33.28v-52.224h24.576c39.424 0 59.392-16.384 58.88-48.64-1.024-29.184-18.432-44.544-51.2-46.592h-4.096zm321.536 0H761.344V808.96h33.28v-57.344h62.464V724.48h-62.464v-35.328h72.192v-27.648zM663.552 688.64c29.696.512 45.056 15.36 46.08 45.568.512 32.768-14.848 49.152-46.08 48.64h-11.264V688.64h11.264zm-124.416-1.536c17.408.512 26.112 7.68 26.624 22.016-.512 14.336-9.216 21.504-26.624 22.016H517.12v-44.032h22.016zM534.528 0c63.488 0 114.688 50.176 117.248 112.64v5.12c0 17.92-14.336 32.256-32.256 32.256a31.766 31.766 0 0 1-31.744-28.672v-3.584c0-28.16-22.016-51.2-49.664-53.248H117.248c-28.16 0-51.2 22.016-53.248 49.664v494.08c0 28.16 22.016 51.2 49.664 53.248H286.72c17.92 0 32.256 14.336 32.256 31.744 0 16.384-12.8 30.208-29.184 31.744H117.248C53.76 724.992 2.56 674.816 0 612.352V117.248C0 54.272 50.176 2.56 112.64 0h421.888zm158.72 490.496c17.92 0 32.256 14.336 32.256 31.744 0 16.384-12.8 30.208-29.184 31.744H522.24c-17.92 0-32.256-14.336-32.256-32.256 0-16.384 12.8-30.208 29.184-31.744h174.08zm0-106.496c17.92 0 32.256 14.336 32.256 32.256 0 16.384-12.8 30.208-29.184 31.744H522.24c-17.92 0-32.256-14.336-32.256-31.744 0-16.384 12.8-30.208 29.184-31.744h174.08zm160.256-59.904v70.656h75.264l-75.264-70.656z"/></svg>