<svg xmlns="http://www.w3.org/2000/svg" width="16" height="16" class="icon" viewBox="0 0 1024 1024"><path fill="#2c2c2c" d="M882.182 243.045a19.555 19.555 0 0 0-4.763-12.868L681.873 6.813l-.158-.127a19.996 19.996 0 0 0-5.267-4.1 21.352 21.352 0 0 0-3.91-1.64L671.464.6a19.965 19.965 0 0 0-4.573-.567H186.32c-21.92 0-39.772 17.851-39.772 39.771v934.68c0 21.951 17.852 39.771 39.772 39.771h656.247c21.92 0 39.771-17.851 39.771-39.771V245.316c0-.757-.126-1.482-.189-2.24zm-613.763 722.26c-27.566 0-54.753-7.16-68.347-14.698l11.102-45.102c14.698 7.507 37.217 15.045 60.493 15.045 25.043 0 38.29-10.377 38.29-26.115 0-15.045-11.45-23.623-40.466-34-40.087-13.94-66.202-36.144-66.202-71.217 0-41.159 34.347-72.667 91.245-72.667 27.218 0 47.246 5.74 61.565 12.174l-12.174 44.03c-9.683-4.668-26.84-11.45-50.464-11.45s-35.072 10.756-35.072 23.277c0 15.391 13.594 22.204 44.755 34.031 42.579 15.739 62.638 37.943 62.638 71.91 0 40.466-31.13 74.813-97.363 74.813zm254.872-3.596h-63.71l-77.304-241.247h59.768l29.332 102c8.232 28.637 15.738 56.203 21.478 86.26h1.073c6.087-28.985 13.593-57.623 21.825-85.157l30.783-103.072h58.002L523.29 961.71zm305.683-11.102c-16.81 5.74-48.666 13.625-80.52 13.625-44.03 0-75.885-11.102-98.09-32.58-22.203-20.753-34.346-52.262-34-87.68.38-80.175 58.696-126.002 137.798-126.002 31.13 0 55.1 6.087 66.927 11.796l-11.449 43.682c-13.246-5.74-29.679-10.376-56.172-10.376-45.449 0-79.827 25.768-79.827 78.03 0 49.769 31.13 79.1 75.885 79.1 12.52 0 22.55-1.45 26.84-3.595v-50.463h-37.217v-42.579h89.825v127.042zM842.6 675.328H186.352V39.772h460.701v202.453s-1.325 20.91 26.273 20.91h169.273v412.162zM341.843 421.055v-8.326H323.14l-22.298-8.327v-7.695h-15.928a14.887 14.887 0 0 1-1.293-1.577l.095-19.744a11.197 11.197 0 0 1 3.248-2.681v1.924h20.06v-1.735c4.446 1.83 7.884 4.7 10.376 8.642l-.095 20.06h20.06v-4.984l18.419-2.492v2.965h20.059v-20.06h-4.636a75.222 75.222 0 0 0-27.913-42.23 75.538 75.538 0 0 0-36.24-15.108v-4.448h-20.058v4.227l-.316.031a64.751 64.751 0 0 0-28.29 10.598 62.007 62.007 0 0 0-25.895 33.211 68.63 68.63 0 0 0-2.839 11.764h-4.447v20.06h4.384a66.423 66.423 0 0 0 34.883 50.337v7.79h19.145l22.172 8.043v8.232h12.332v18.545h.284a13.657 13.657 0 0 1-5.235 4.163v-1.734h-20.06v2.68a17.63 17.63 0 0 1-5.645-2.617 16.748 16.748 0 0 1-5.52-7.822h.883v-20.06h-20.059v5.646l-19.27 2.397v-2.712h-20.06v20.06h6.213c4.258 19.648 13.752 34.724 28.197 44.88 10.187 7.16 22.046 11.386 35.23 12.648v4.257h20.06v-4.478l2.617-.316 1.104-.315a68.031 68.031 0 0 0 32.233-14.54 64.026 64.026 0 0 0 20.186-28.859 74.472 74.472 0 0 0 3.375-13.278h3.942v-20.06h-3.91a63.395 63.395 0 0 0-30.878-46.993zM313.205 532.8v-2.964h-20.06v3.47a60.777 60.777 0 0 1-28.101-10.44c-10.976-7.76-18.514-19.46-22.52-34.757h1.01v-4.794l19.27-2.397v1.86h6.182c3.375 11.512 9.84 18.893 19.334 21.984 1.546.441 3.154.82 4.826 1.135v4.668h20.06v-5.141a25.642 25.642 0 0 0 19.238-17.347h6.024v-20.06h-6.055a25.295 25.295 0 0 0-6.56-9.682v-9.146h-17.221l-23.813-8.863v-7.128H267.63a54.942 54.942 0 0 1-25.705-38.1h3.627v-20.06h-3.311a51.126 51.126 0 0 1 20.09-32.737c7.318-5.394 15.581-8.8 24.633-10.156v3.122h20.06v-3.09c10.534 1.608 20.185 5.771 28.795 12.426 11.165 8.579 18.482 19.208 22.267 32.36h-2.302v4.573l-18.42 2.555v-2.65h-6.434a32.99 32.99 0 0 0-23.875-21.541v-5.394h-20.06v4.984a22.96 22.96 0 0 0-17.062 15.517h-6.245v20.06h6.213c2.019 6.024 5.677 10.755 10.944 14.16v7.444h17.947l23.055 8.579v7.412h15.423c12.931 8.61 20.47 20.185 22.96 35.261h-3.563v20.06h3.595a47.244 47.244 0 0 1-2.46 9.051c-7.285 19.902-21.762 31.54-44.44 35.609h-.125zM583.88 341.796v-20.06h-20.06v3.375h-18.955v-.757l32.423-29.142h13.12V275.94h-19.27v14.76l-34.536 31.036h-11.827v10.629l-22.299 20.027h-15.423v19.271h19.27v-12.679l17.253-15.517-48.098 125.938-44.944-129.345v-18.293h-20.06v3.375h-18.986v-3.375h-20.06v20.06h7.065l63.71 183.624v19.113h20.06v-3.091h23.465v3.09h20.06V529.49l-.158-.883 71.343-186.779h6.907zm-128.903 182.71L391.55 341.67V337.6h18.955v4.195h7.633l47.152 136.472v19.933h20.343v-20.059h-.284l52.072-136.346h7.443V337.6h18.987v3.501l-69.797 183.403h-8.295v4.48h-23.466v-4.48h-7.317zm356.651-83.297v-20.06h-20.343v4.196H706.6v-4.195h-20.343v20.06h3.375v19.27h-3.375v20.343H706.6v-3.659h29.931a57.812 57.812 0 0 1-30.467 15.96v-2.87h-20.06v3.153a58.38 58.38 0 0 1-33.968-16.653 57.465 57.465 0 0 1-17.504-33.022h2.46V423.39h-2.807c1.955-13.057 7.696-24.19 17.504-33.905s21.1-15.391 34.347-17.158v3.154h20.06v-2.68c9.177 1.608 17.599 5.33 25.168 11.07v10.44h20.343v-3.628l28.26.221v3.407h20.343v-20.06h-8.863a113.764 113.764 0 0 0-36.964-37.564 108.402 108.402 0 0 0-48.225-16.274v-4.826H686.1v4.731c-27.408 1.956-51.283 12.9-70.996 32.518s-30.782 43.335-32.927 70.586h-4.763v20.343h4.826c2.492 27.06 13.72 50.558 33.432 69.892s43.336 30.089 70.397 32.044v4.195h20.059v-4.321a110.042 110.042 0 0 0 47.057-15.99v15.265h20.06v-3.943h18.135v3.943h20.343v-20.06h-4.195l.252-83.58h3.974zm-125.654 88.627v3.374a96.795 96.795 0 0 1-61.723-28.48 97.552 97.552 0 0 1-29.553-60.998h2.681V423.39h-2.744c2.113-23.75 11.922-44.47 29.237-61.723s38.227-27.03 62.134-29.111v3.311h20.059v-2.964a96.512 96.512 0 0 1 40.844 14.003c13.026 8.011 23.812 18.609 32.107 31.509h-27.47v-4.195H738.77a70.018 70.018 0 0 0-32.707-14.035v-5.078h-20.06v4.604c-16.62 1.893-31.066 8.895-43.051 20.88s-19.05 26.335-21.1 42.768H616.9V443.7h5.015c2.208 16.274 9.43 30.372 21.51 42.01 12.048 11.576 26.336 18.388 42.547 20.218v4.32h20.06v-4.762a69.924 69.924 0 0 0 44.533-24.727h10.22v-20.343h-20.06v4.51h-34.157v-4.51h-4.48v-19.271h4.48v-3.375h84.715v3.375h3.88l-.221 41.632v41.917h-3.659v3.658H773.15v-23.308h-20.06v9.746a99.413 99.413 0 0 1-47.057 18.167v-3.185h-20.059z"/></svg>