<svg xmlns="http://www.w3.org/2000/svg" width="16" height="16" class="icon" viewBox="0 0 1024 1024"><path d="M878.208 231.808q0-11.712-8.768-20.16-9.344-8.96-22.656-8.96H177.28q-13.312 0-22.656 8.96-8.768 8.448-8.768 20.16v560.384q0 11.648 8.768 20.16 9.344 8.96 22.656 8.96h669.44q13.312 0 22.656-8.96 8.768-8.512 8.768-20.16V231.808zm64 0v560.384q0 38.848-28.352 66.24-27.904 26.88-67.072 26.88H177.28q-39.168 0-67.072-26.88-28.352-27.392-28.352-66.24V231.808q0-38.912 28.352-66.24 27.904-26.88 67.072-26.88h669.44q39.168 0 67.072 26.88 28.352 27.328 28.352 66.24z"/><path d="M227.584 343.68h49.152v207.872q0 45.376 20.032 66.368 20.48 21.952 64.576 21.952 43.712 0 64.128-21.952 20.16-21.888 20.16-66.368V343.744h49.216V548.16q0 64.128-34.816 98.368-35.584 33.792-98.688 33.792-64.32 0-98.368-33.344-35.392-34.688-35.392-98.816V343.744zm428.544 0h56.448L837.76 675.584h-53.312l-30.528-85.376H614.208l-30.528 85.376h-52.736l125.184-331.84zm-26.816 206.08h109.632l-53.76-151.232h-1.792l-54.08 151.296z"/></svg>